<?xml version="1.0" encoding="utf-8"?>
<!-- Generator: Adobe Illustrator 22.1.0, SVG Export Plug-In . SVG Version: 6.00 Build 0)  -->
<svg version="1.1" id="Layer_1" xmlns="http://www.w3.org/2000/svg" xmlns:xlink="http://www.w3.org/1999/xlink" x="0px" y="0px"
	 viewBox="0 0 172.5 33.5" enable-background="new 0 0 172.5 33.5" xml:space="preserve">
<g>
	<path d="M45.3,4.9c0.6,0,1.1,0.2,1.5,0.6c0.4,0.4,0.6,0.9,0.6,1.5c0,0.6-0.2,1.1-0.6,1.5c-0.4,0.4-0.9,0.6-1.5,0.6
		c-0.6,0-1.1-0.2-1.5-0.6c-0.4-0.4-0.6-0.9-0.6-1.5c0-0.6,0.2-1.1,0.6-1.5C44.3,5.1,44.8,4.9,45.3,4.9L45.3,4.9z M43.6,27.7V12.2
		c0-0.5,0.2-0.9,0.5-1.3c0.3-0.3,0.8-0.5,1.3-0.5c0.5,0,0.9,0.2,1.3,0.5c0.4,0.3,0.5,0.8,0.5,1.3v15.6c0,0.5-0.2,0.9-0.5,1.3
		c-0.3,0.3-0.8,0.5-1.3,0.5c-0.5,0-0.9-0.2-1.3-0.5C43.7,28.7,43.6,28.2,43.6,27.7L43.6,27.7z"/>
	<path d="M54.4,12.1c1.5-1.2,3.3-1.8,5.4-1.8c1.2,0,2.3,0.2,3.4,0.7c1.1,0.5,2,1.1,2.8,1.9c0.8,0.8,1.5,1.7,2,2.8
		c0.5,1.1,0.7,2.2,0.7,3.5v8.4c0,0.5-0.2,0.9-0.5,1.3c-0.4,0.3-0.8,0.5-1.3,0.5c-0.5,0-0.9-0.2-1.3-0.5c-0.3-0.4-0.5-0.8-0.5-1.3
		v-8.4c0-0.7-0.1-1.4-0.4-2.1c-0.3-0.7-0.7-1.2-1.2-1.7c-0.5-0.5-1.1-0.9-1.7-1.2c-0.6-0.3-1.3-0.4-2.1-0.4c-0.7,0-1.4,0.1-2.1,0.4
		C57,14.7,56.4,15,56,15.5c-0.5,0.5-0.9,1.1-1.2,1.7c-0.3,0.6-0.4,1.3-0.4,2.1v8.4c0,0.5-0.2,0.9-0.5,1.3c-0.3,0.3-0.8,0.5-1.3,0.5
		c-0.5,0-0.9-0.2-1.3-0.5c-0.4-0.4-0.5-0.8-0.5-1.3V12.2c0-0.5,0.2-0.9,0.5-1.3c0.3-0.4,0.8-0.5,1.3-0.5c0.5,0,0.9,0.2,1.3,0.5
		C54.2,11.3,54.4,11.7,54.4,12.1L54.4,12.1z"/>
	<path d="M86.9,20c0-0.8-0.2-1.6-0.5-2.3c-0.3-0.7-0.7-1.4-1.3-1.9c-0.5-0.5-1.2-1-1.9-1.3c-0.7-0.3-1.5-0.5-2.3-0.5
		c-0.8,0-1.6,0.2-2.4,0.5c-0.7,0.3-1.4,0.7-1.9,1.3c-0.5,0.5-1,1.2-1.3,1.9c-0.3,0.7-0.5,1.5-0.5,2.3c0,0.8,0.2,1.6,0.5,2.3
		c0.3,0.7,0.7,1.4,1.3,1.9c0.5,0.5,1.2,1,1.9,1.3c0.7,0.3,1.5,0.5,2.4,0.5c0.8,0,1.6-0.2,2.3-0.5c0.7-0.3,1.4-0.8,1.9-1.3
		c0.5-0.5,1-1.2,1.3-1.9C86.8,21.6,86.9,20.8,86.9,20L86.9,20z M80.9,10.4c2.3,0,4.3,0.7,6,2.1V3.9c0-0.5,0.2-0.9,0.5-1.3
		c0.3-0.3,0.8-0.5,1.3-0.5c0.5,0,0.9,0.2,1.3,0.5c0.4,0.3,0.5,0.8,0.5,1.3v16c0,2.7-0.9,4.9-2.8,6.8c-1.9,1.9-4.2,2.8-6.8,2.8
		c-2.6,0-4.9-0.9-6.8-2.8c-1.9-1.9-2.8-4.1-2.8-6.8c0-2.6,0.9-4.9,2.8-6.8C76,11.3,78.3,10.4,80.9,10.4L80.9,10.4z"/>
	<path d="M112.4,20c0,2.7-0.9,4.9-2.8,6.8c-1.9,1.9-4.2,2.8-6.8,2.8c-2.6,0-4.9-0.9-6.8-2.8c-1.9-1.9-2.8-4.1-2.8-6.8
		c0-2.6,0.9-4.9,2.8-6.8c1.9-1.9,4.1-2.8,6.8-2.8c2.6,0,4.9,0.9,6.8,2.8c0.9,0.9,1.6,2,2.1,3.1C112.2,17.4,112.4,18.6,112.4,20
		L112.4,20z M102.8,14c-0.8,0-1.6,0.2-2.4,0.5c-0.7,0.3-1.4,0.7-1.9,1.3c-0.5,0.5-1,1.2-1.3,1.9c-0.3,0.7-0.5,1.5-0.5,2.3
		c0,0.8,0.2,1.6,0.5,2.3c0.3,0.7,0.7,1.4,1.3,1.9c0.5,0.5,1.2,1,1.9,1.3c0.7,0.3,1.5,0.5,2.4,0.5c0.8,0,1.6-0.2,2.3-0.5
		c0.7-0.3,1.4-0.8,1.9-1.3c0.5-0.5,1-1.2,1.3-1.9c0.3-0.7,0.5-1.5,0.5-2.3c0-0.8-0.2-1.6-0.5-2.3c-0.3-0.7-0.7-1.4-1.3-1.9
		c-0.5-0.5-1.2-1-1.9-1.3C104.4,14.1,103.7,14,102.8,14L102.8,14z"/>
	<path d="M118.7,12.1c1.5-1.2,3.3-1.8,5.4-1.8c1.2,0,2.3,0.2,3.4,0.7c1.1,0.5,2,1.1,2.8,1.9c0.8,0.8,1.5,1.7,2,2.8
		c0.5,1.1,0.7,2.2,0.7,3.5v8.4c0,0.5-0.2,0.9-0.5,1.3c-0.4,0.3-0.8,0.5-1.3,0.5c-0.5,0-0.9-0.2-1.3-0.5c-0.3-0.4-0.5-0.8-0.5-1.3
		v-8.4c0-0.7-0.1-1.4-0.4-2.1c-0.3-0.7-0.7-1.2-1.2-1.7c-0.5-0.5-1.1-0.9-1.7-1.2c-0.6-0.3-1.3-0.4-2.1-0.4c-0.7,0-1.4,0.1-2.1,0.4
		c-0.6,0.3-1.2,0.7-1.7,1.2c-0.5,0.5-0.9,1.1-1.1,1.7c-0.3,0.6-0.4,1.3-0.4,2.1v8.4c0,0.5-0.2,0.9-0.5,1.3c-0.3,0.3-0.8,0.5-1.3,0.5
		c-0.5,0-0.9-0.2-1.3-0.5c-0.4-0.4-0.5-0.8-0.5-1.3V12.2c0-0.5,0.2-0.9,0.5-1.3c0.3-0.4,0.8-0.5,1.3-0.5c0.5,0,0.9,0.2,1.3,0.5
		C118.5,11.3,118.7,11.7,118.7,12.1L118.7,12.1z"/>
	<path d="M151,18.2c-0.2-0.6-0.5-1.2-0.9-1.7c-0.4-0.5-0.8-1-1.3-1.3c-0.5-0.4-1.1-0.7-1.7-0.9c-0.6-0.2-1.2-0.3-1.9-0.3
		c-0.6,0-1.3,0.1-1.9,0.3c-0.6,0.2-1.2,0.5-1.7,0.9c-0.5,0.4-1,0.8-1.3,1.3c-0.4,0.5-0.7,1.1-0.8,1.7H151L151,18.2z M150.2,24.1
		c0.5,0,0.9,0.2,1.3,0.5c0.3,0.3,0.5,0.8,0.5,1.3c0,0.5-0.2,0.9-0.5,1.3c-1.8,1.5-3.9,2.3-6.3,2.3c-2.6,0-4.9-0.9-6.8-2.8
		c-1.9-1.9-2.8-4.1-2.8-6.8c0-2.6,0.9-4.9,2.8-6.8c1.9-1.9,4.1-2.8,6.8-2.8c2.6,0,4.9,0.9,6.8,2.8c0.9,0.9,1.6,2,2.1,3.1
		c0.5,1.1,0.7,2.4,0.7,3.7c0,0.5-0.2,0.9-0.5,1.3c-0.3,0.3-0.8,0.5-1.3,0.5h-13.5c0.2,0.6,0.5,1.2,0.9,1.7c0.4,0.5,0.8,1,1.3,1.3
		c0.5,0.4,1.1,0.7,1.7,0.9c0.6,0.2,1.2,0.3,1.9,0.3c0.8,0,1.4-0.1,2.1-0.3c0.6-0.2,1.2-0.6,1.7-1C149.4,24.3,149.8,24.2,150.2,24.1
		L150.2,24.1z"/>
	<path d="M170.7,29.5h-13c-0.3,0-0.5,0-0.7-0.1c-0.2-0.1-0.4-0.2-0.6-0.4c-0.2-0.2-0.3-0.4-0.4-0.6c-0.1-0.2-0.1-0.4-0.1-0.7
		c0-0.4,0.1-0.8,0.4-1.1L166.9,14h-9.2c-0.5,0-0.9-0.2-1.2-0.5c-0.4-0.4-0.5-0.8-0.5-1.3c0-0.5,0.2-0.9,0.5-1.3
		c0.3-0.3,0.8-0.5,1.2-0.5h13c0.3,0,0.5,0,0.7,0.1c0.2,0.1,0.4,0.2,0.6,0.4c0.2,0.2,0.3,0.4,0.4,0.6c0.1,0.2,0.1,0.4,0.1,0.7
		c0,0.5-0.1,0.9-0.4,1.2L161.5,26h9.2c0.5,0,0.9,0.2,1.2,0.5c0.3,0.4,0.5,0.8,0.5,1.3c0,0.5-0.2,0.9-0.5,1.3
		C171.6,29.4,171.2,29.5,170.7,29.5L170.7,29.5z"/>
</g>
<g>
	<path fill-rule="evenodd" clip-rule="evenodd" fill="#93D6F6" d="M0.8,22C-2,13.2,2.7,3.7,11.5,0.8C20.3-2,29.8,2.7,32.7,11.5
		c2.9,8.8-1.9,18.3-10.7,21.1c-4.4,1.4-8.9,1-12.7-0.9c2.3,0.8,5,0.9,7.5,0.1c6.1-2,9.4-8.6,7.4-14.7c-2-6.1-8.6-9.4-14.7-7.4
		C3.3,11.7,0,18.2,2,24.4c0.1,0.4,0.3,0.7,0.4,1.1C1.8,24.4,1.2,23.2,0.8,22L0.8,22z"/>
	<path fill-rule="evenodd" clip-rule="evenodd" fill="#43B2E5" d="M33.5,17.6C33,26.8,25.2,33.9,16,33.5C6.7,33-0.4,25.2,0,16
		C0.5,6.7,8.3-0.4,17.6,0c4.6,0.2,8.7,2.3,11.6,5.4c-1.9-1.6-4.3-2.6-7-2.7C15.7,2.4,10.3,7.4,10,13.8C9.7,20.2,14.6,25.7,21,26
		c6.4,0.3,11.9-4.7,12.2-11.1c0-0.4,0-0.8,0-1.1C33.5,15,33.5,16.3,33.5,17.6L33.5,17.6z"/>
	<path fill-rule="evenodd" clip-rule="evenodd" fill="#0094D9" d="M16.8,0C26,0,33.5,7.5,33.5,16.8c0,9.3-7.5,16.7-16.7,16.7
		S0,26,0,16.8C0,12.1,1.9,8,4.9,4.9c-1.5,2-2.4,4.4-2.4,7.1c0,6.4,5.2,11.7,11.7,11.7c6.4,0,11.7-5.2,11.7-11.7
		c0-6.4-5.2-11.7-11.7-11.7c-0.4,0-0.8,0-1.1,0.1C14.2,0.2,15.5,0,16.8,0L16.8,0z"/>
</g>
</svg>
