<svg xmlns="http://www.w3.org/2000/svg" viewBox="0 0 274.8 257"><style>.st1{fill:#211f20}.st2{fill:#a6c0d8}.st3{fill:#8baac4}.st4{fill:#94adc1}.st6{fill:#c2c490}.st7{fill:#d8daad}.st8{fill:#b1b1b1}</style><g id="BACKGROUND"><path id="XMLID_1_" fill="#fff" d="M-114.2-158h500v500h-500z"/></g><g id="OBJECTS"><g id="XMLID_2_"><g id="XMLID_2793_"><g id="XMLID_2810_"><path id="XMLID_2811_" class="st1" d="M64.6 59.2c.2 0 .4.2.4.4 0 5.7 2.9 11.3 7.5 14.7 1.6 1.2 4.1 2.6 6.7 2.2.2 0 .3-.1.5-.1-.8-.7-1.6-1.6-2.2-2.5-.7-1.1-1.5-2.8-1.3-4.8.2-1.9 1.4-3.4 3-3.9 1.4-.4 3 0 4.2 1 1 .9 1.7 2.3 1.8 3.9.2 2.6-1.4 5.2-3.6 6.5 3.2 1.9 7.4 2.3 10.7.6 2.7-1.5 4.6-4.3 5.3-7.3-1.5-1.8-2.2-4.2-1.8-6.6 0-.2.1-.8.6-1 .5-.2 1.1.1 1.4.9.9 2 1.1 4.3.7 6.5.4.4.8.8 1.3 1.1 2.3 1.6 5.5 1.7 8 .3s4-4.2 3.8-7c0-.2.2-.5.4-.5s.5.2.5.4c.2 3.1-1.5 6.3-4.3 7.9-2.7 1.6-6.3 1.4-8.9-.4-.4-.2-.7-.5-1-.8-.8 3-2.8 5.8-5.6 7.3-3.8 2-8.6 1.5-12.1-.9-.4.1-.8.3-1.2.3-2.9.4-5.6-1-7.4-2.3-4.8-3.5-7.8-9.5-7.8-15.4 0-.1 0-.2.1-.3 0-.1.2-.2.3-.2zm19.7 10.9c-.1-1.3-.6-2.5-1.5-3.3-.9-.8-2.2-1.2-3.3-.8-1.2.4-2.2 1.7-2.4 3.2-.2 1.7.5 3.2 1.1 4.2.6 1 1.5 1.9 2.4 2.6 2.3-1 3.9-3.4 3.7-5.9zM97 63.5c-.1-.2-.2-.4-.3-.4 0 0-.1.1-.1.3-.3 1.8.2 3.6 1.1 5.2.2-1.7 0-3.5-.7-5.1z"/></g><g id="XMLID_2806_"><path id="XMLID_2807_" class="st1" d="M73.5 52.7c3.3-1.2 7-2.7 10.8-2.9 4.3-.3 8.1 1 10.6 3.6.7.7 1.2 1.5 1.6 2.3 3.1.3 6.1 1.6 8.5 3.6 3.2 2.7 5.1 6.6 5.5 10.7 0 .2-.2.5-.4.5s-.5-.2-.5-.4c-.3-3.9-2.2-7.6-5.1-10.1-2.2-1.8-4.8-3-7.6-3.3.3 1.1.4 2.2.3 3.2-.4 2.5-2.6 4.5-4.9 4.6-1.3.1-2.6-.5-3.5-1.6-.8-.9-1.2-2.1-1-3.2.5-2.6 3.4-3.8 5.8-4 .6-.1 1.2-.1 1.9-.1-.3-.6-.7-1.1-1.2-1.7-2.2-2.4-5.8-3.6-9.9-3.3-3.7.2-7.4 1.6-10.6 2.9-.2.1-.5 0-.6-.3-.1-.2 0-.4.3-.5zm22.3 3.9h-2.2c-2 .2-4.6 1.2-5 3.3-.2.8.1 1.7.8 2.4.7.8 1.8 1.3 2.8 1.3 1.9-.1 3.7-1.8 4-3.9.1-.8.1-1.6-.1-2.4-.1-.2-.2-.5-.3-.7z"/></g><g id="XMLID_2747_"><path id="XMLID_2762_" class="st2" d="M46.4 201.8c-.3-4.4 2.1-15.5 7.6-16 5.6-.5 1.4 11.9-1.3 16.6-2.7 4.6-6.2 1.7-6.3-.6z"/><path id="XMLID_2761_" class="st3" d="M54 199.8c.8-1.9 1.6-4.1 2.1-6.2-2.6-.7-5.1-1.8-7.4-3.1-1 2.1-1.7 4.5-2.1 6.8 2.3 1.3 4.8 2.1 7.4 2.5z"/><path id="XMLID_2760_" class="st2" d="M9 140.3s2.2-3 8.1-1.2c2.3.7 6.7 2.4 5.4 7.7-1.5 6.2-12.8 40.3 17.3 52.9.2.3 4.1 10.9-5.7 14.1 0 0-29.6-14.4-30.7-45.1-.6-16.9 5.6-28.4 5.6-28.4z"/><path id="XMLID_2759_" class="st3" d="M39.9 199.7c.1 0 13.3-2.1 22.1 1.4 0 0 4.7 15.5-4.8 24.7 0 0-6.5.2-23.1-12l5.8-14.1z"/><path id="XMLID_2758_" class="st3" d="M3.9 173.6c4.5-3 10-4.3 15.4-3.7-.3-5.4.4-10.6 1.3-14.7-5.2-1.3-10.7-1.5-16-.7-.8 4.1-1.3 8.9-1.1 14.2 0 1.6.2 3.3.4 4.9z"/><path id="XMLID_2757_" class="st3" d="M20.1 203.6c.8-1.4 1.6-2.8 2.7-4 2.1-2.6 4.5-4.5 6.9-6.1-3.9-3.4-6.4-7.4-8.1-11.5-4.7 1.3-9.2 3.5-13.1 6.4 3.3 6.3 7.5 11.3 11.6 15.2z"/><g id="XMLID_2754_"><path id="XMLID_2756_" class="st2" d="M58.8 201.6c4.2-1.4 17.8.9 16.8 5.5-1.1 5.5-10.1 2.5-15.1.7-5.4-2-3-5.7-1.7-6.2z"/><path id="XMLID_2755_" class="st3" d="M62.2 208.4c1.9.6 4.1 1.3 6.1 1.6-.6-1.2-.9-2.6-.8-4 .1-1.4.5-2.8 1.2-4-2-.5-4.1-.7-6-.8-.3.6-.6 1.4-.8 2.6-.1 1.4 0 3 .3 4.6z"/></g><g id="XMLID_2751_"><path id="XMLID_2753_" class="st2" d="M58.3 211.4c4.2-1.4 17.8.9 16.8 5.5-1.1 5.5-10.1 2.5-15.1.7-5.4-2-3-5.8-1.7-6.2z"/><path id="XMLID_2752_" class="st3" d="M61.7 218.2c1.9.6 4.1 1.3 6.1 1.6-.6-1.2-.9-2.6-.8-4 .1-1.4.5-2.8 1.2-4-2-.5-4.1-.7-6-.8-.3.6-.6 1.4-.8 2.6-.2 1.4-.1 3 .3 4.6z"/></g><g id="XMLID_2748_"><path id="XMLID_2750_" class="st2" d="M55.9 219.1c4.4-.4 17.1 4.8 15.2 9.1-2.3 5.1-10.4.2-14.9-2.7-4.8-3.2-1.7-6.3-.3-6.4z"/><path id="XMLID_2749_" class="st3" d="M57.8 226.4c1.7 1 3.7 2.2 5.6 3-.3-1.3-.3-2.8.1-4.1.4-1.3 1.1-2.6 2.1-3.6-1.8-.9-3.8-1.6-5.6-2.1-.5.5-.9 1.3-1.4 2.4-.6 1.2-.9 2.8-.8 4.4z"/></g></g><g id="XMLID_2736_"><path id="XMLID_2739_" class="st4" d="M113.2 55.9s-7.8-1.1-11.4-.5c0 0-2.1 10.6-1.4 24.1 0 0 9.6.3 10.2.1 2.6-1 7.2-14 2.6-23.7z"/><path id="XMLID_2737_" d="M107 79.7c1.8 0 3.3 0 3.6-.1 2.6-1 7.2-14 2.6-23.7 0 0-1.8-.3-4.1-.5 2 7.4 1.6 15.4-1.3 22.6-.2.6-.5 1.1-.8 1.7z" fill="#7e94a1"/></g><path id="XMLID_2589_" class="st2" d="M127.8 39.6s-9.6.5-9.6 8.5c0 0-8.5.1-6.8 9.6 0 0-6.4.2-6.6 14.2-.2 14-3.9 66.9-2 73 0 0 5.8 11.6 47.3 12.2 28.2.4 50.3 1.1 56.6-16.6.6-1.8 5.4-76.9-18.9-93.9 0 0-3.5-8.7-9.6-6.8 0 0-2.8-5.4-8.8-4.5 0 0-7.2-6.7-22.8-5.3-17.1 1.5-18.8 9.6-18.8 9.6z"/><path id="XMLID_2652_" class="st3" d="M119.9 83.5s-2.1 31.1.4 37.5c2.4 6.3 44.7 3.7 47.8-1.3 3.1-5-.3-34.6-4.4-37.9-.2 0-34.1 3.7-43.8 1.7z"/><path id="XMLID_2648_" class="st2" d="M73.7 88.9s-33.6-1.5-43.2 2.8c-10.2 4.6-15.6 27.8-2.5 40.9 8.4 8.4 17.2 7.5 46.5 9.5 0 0 6.1-1.9 5.3-27-.4-10.8.1-21.7-6.1-26.2z"/><path id="XMLID_2667_" class="st1" d="M121.6 84.9s-2.5 30.7.4 35.8c0 0 29.4 4.6 44.7-2.6 0 0 0-25.4-4.5-33.2 0 0-31.9 3.7-40.6 0z"/><path id="XMLID_2703_" class="st3" d="M206.7 140.5c-1.9 5.4-5.3 9.1-9.9 11.6 2.8-10.1-.8-67.5-3.9-85.4-3.2-18-7-17.7-7-17.7l-16.4-13.7c6-.9 8.8 4.5 8.8 4.5 6.1-1.9 9.6 6.8 9.6 6.8 24.2 16.9 19.4 92.1 18.8 93.9z"/><path id="XMLID_2668_" class="st3" d="M174.6 78c0 .9-.8 1.7-1.7 1.7-.9 0-1.7-.8-1.7-1.7 0-.9.8-1.7 1.7-1.7.9 0 1.7.8 1.7 1.7z"/><path id="XMLID_2670_" class="st3" d="M178 124.7c0 .9-.8 1.7-1.7 1.7s-1.7-.8-1.7-1.7c0-.9.8-1.7 1.7-1.7s1.7.7 1.7 1.7z"/><path id="XMLID_2671_" class="st3" d="M113.6 127.2c0 .9-.8 1.7-1.7 1.7-.9 0-1.7-.8-1.7-1.7s.8-1.7 1.7-1.7c1 0 1.7.7 1.7 1.7z"/><circle id="XMLID_2672_" class="st3" cx="114.1" cy="78" r="1.7"/><path id="XMLID_2673_" class="st6" d="M121.7 130.7s-3.2 6.1-.1 10.1c0 0 25.4 4.8 44.4 0 0 0-1.3-8-.7-10.1-.1 0-23.3 3.4-43.6 0z"/><path id="XMLID_2669_" class="st6" d="M165.2 130.7h2.6l.6 9.5-2.5.6s-1.3-7.3-.7-10.1z"/><path id="XMLID_2721_" class="st7" d="M142.3 142.9c-4.2-.1-8-.4-11.3-.8-.8-3.7-.9-7.7-.8-10.4 3.9.3 7.7.5 11.4.5-.1 2.6-.1 6.8.7 10.7z"/><path id="XMLID_2722_" class="st7" d="M165.9 140.8c-3.7.9-7.7 1.5-11.7 1.8-.9-3.9-.9-8.2-.7-10.8 7-.4 11.7-1.2 11.7-1.2-.6 2.2.7 10.2.7 10.2z"/><path id="XMLID_2595_" class="st8" d="M143.6 86.4s5.1 2.8 6.1 2.1c.3-.3.6-1.2.8-2.5-2.2.2-4.5.3-6.9.4zm-14.1 7c-3.9 1.9-6.9.1-8.4-1.5-.1 2.1-.2 4.4-.3 6.9 1.1.3 2.4.5 4 .5l1.6 5.4s.9 1.7 3.9 1.2 3.6-1.5 3.5-2.4c-.1-.8-1.5-5.8-1.5-5.8s0-2.9 4.8-3.8c0 0 2.8 4.8 4.8 4.6 1.4-.1 4.7-1.1 3.9-5.6 0 0-2.7-2.2-3.9-2.6 0 0 .6-2.6 1.8-4-2.5.1-5.1.2-7.5.2-.3 1.8-1.6 4.4-6.7 6.9z"/><path id="XMLID_2712_" class="st8" d="M153.5 121.6c-3.6.4-7.3.6-10.8.6-.8-1.5-.6-3.4-.7-4.7-.1-2.9.8-6 5.9-6.5 6.7-.7 6.5 4.8 6.5 4.8.3 2.4.1 4.3-.9 5.8z"/><g id="XMLID_2765_"><g id="XMLID_2683_"><path id="XMLID_2778_" class="st1" d="M48.7 106.3c-.2 0-.5-.1-.6-.3l-5.6-5.8c-.3-.4-.3-.9 0-1.3.4-.3.9-.3 1.3 0l5.6 5.8c.3.4.3.9 0 1.3-.3.2-.5.3-.7.3z"/></g><g id="XMLID_2684_"><path id="XMLID_2777_" class="st1" d="M42.8 106.1c-.2 0-.5-.1-.6-.3-.3-.4-.3-.9 0-1.3l5.9-5.7c.4-.3.9-.3 1.3 0 .3.4.3.9 0 1.3l-5.9 5.7c-.3.2-.5.3-.7.3z"/></g><g id="XMLID_2686_"><path id="XMLID_2776_" class="st1" d="M49.6 129.3c-.2 0-.5-.1-.6-.3l-5.6-5.8c-.3-.4-.3-.9 0-1.3.4-.3.9-.3 1.3 0l5.6 5.8c.3.4.3.9 0 1.3-.2.2-.5.3-.7.3z"/></g><g id="XMLID_2685_"><path id="XMLID_2775_" class="st1" d="M43.7 129.1c-.2 0-.5-.1-.6-.3-.3-.4-.3-.9 0-1.3l5.9-5.7c.4-.3.9-.3 1.3 0 .3.4.3.9 0 1.3l-5.9 5.7c-.2.2-.5.3-.7.3z"/></g></g><g id="XMLID_2682_"><path id="XMLID_2687_" class="st3" d="M220.9 203.3s-19.2 7.8-27.5 19.3c0 0 23.9 8.7 46.9-2.3 0 0-.1-10.3-1.2-15.9l-18.2-1.1z"/><path id="XMLID_2714_" class="st2" d="M240.3 220.2c-23 11.1-46.9 2.3-46.9 2.3.5-.4 17.9-14.7 30.8-19.1l14.8.8c1.2 5.7 1.3 16 1.3 16z"/><path id="XMLID_2689_" class="st3" d="M220.9 194.6s-.6 7.1 0 8.7c0 0 5.9 5.3 18.2 1 0 0 .9-8.1.5-9.5-1.2-3.7-17.8-3.9-18.7-.2z"/><path id="XMLID_2713_" class="st2" d="M239.6 194.8c.1 2.7-2.3 2.7-6.9 2.8-5.4.1-11.5-.8-11.8-3.1.9-3.6 17.5-3.4 18.7.3z"/></g><path id="XMLID_2706_" class="st8" d="M164.1 107c-.7-.3-4.1 1.5-4.9 2-1-1.8-2.4-3.5-4.3-4.5.3-.7 1.3-3.2 1-4.8-.3-1.9-2.9-2.5-4-1.7-1 .6-1.5 3.9-1.7 5.1-3.2-.4-5.9.3-7.6 1-.6-1-1.8-3.2-2.5-3.7-1-.7-2.2-.4-3.5 1.3-1.3 1.7 1.7 4.9 1.7 4.9h.1c-1.9 1.8-3 3.9-3.5 6h-.1s-3.4-1-5.2 0c-1 .5-.7 4.6.7 5 1.4.4 3 .8 4 .7.1 1.7.3 3 .5 3.5 1 .1 2.1.1 3.2.1-.1-.4-.1-.6-.1-.6s-2.5-9.2 4.7-13.6c0 0 5.2-3 10.9-.6s6 11.4 6 12.4c0 .2.1.5.2.9l2.4-.6c0-.6-.1-3.4-1-6.6.6 0 2.9-.3 4-1 1-.8-.1-4.8-1-5.2z"/><path id="XMLID_2725_" class="st8" d="M105.4 26.7c-.5-.1-1.1-.3-1.5-.3-.3-.9-.3-1.4-.1-1.6.2 0 1-.1 1.4-.4.5-.3 0-1.8-.3-2-.3-.1-1.5.6-1.8.7-.4-.7-.9-1.3-1.6-1.7.1-.3.5-1.2.4-1.8-.1-.7-1.1-.9-1.5-.6-.4.2-.6 1.5-.6 1.9-1.2-.1-2.2.1-2.9.4-.2-.4-.7-1.2-.9-1.4-.4-.3-.8-.1-1.3.5s.6 1.8.6 1.8c-.7.7-1.1 1.5-1.3 2.3 0 0-1.3-.4-1.9 0-.4.2-.3 1.7.3 1.9.5.1 1.1.3 1.5.3.3.7.2 1 .2 1.6-.2 0-1.1.1-1.5.4-.5.3 0 1.8.3 2 .3.1 1.5-.6 1.8-.7.4.7.9 1.3 1.6 1.7-.1.3-.5 1.2-.4 1.8.1.7 1.1.9 1.5.6.4-.2.6-1.5.6-1.9 1.2.1 2.2-.1 2.9-.4.2.4.7 1.2.9 1.4.4.3.8.1 1.3-.5s-.6-1.8-.6-1.8c.7-.7 1.1-1.5 1.3-2.3 0 0 1.3.4 1.9 0 .4-.2.2-1.8-.3-1.9zm-4.9 1.9c-.6.5-2.2.8-3.1.1-.8-.6-1.2-2.6-.3-3.7.5-.6 1.7-1.4 2.8-.6 1.6 1.2 1.3 3.6.6 4.2z"/><path id="XMLID_2697_" class="st8" d="M159.9 165.1c-.5-.1-1.1-.3-1.5-.3-.3-.9-.3-1.4-.1-1.6.2 0 1-.1 1.4-.4.5-.3 0-1.8-.3-2-.3-.1-1.5.6-1.8.7-.4-.7-.9-1.3-1.6-1.7.1-.3.5-1.2.4-1.8-.1-.7-1.1-.9-1.5-.6-.4.2-.6 1.5-.6 1.9-1.2-.1-2.2.1-2.9.4-.2-.4-.7-1.2-.9-1.4-.4-.3-.8-.1-1.3.5s.6 1.8.6 1.8c-.7.7-1.1 1.5-1.3 2.3 0 0-1.3-.4-1.9 0-.4.2-.3 1.7.3 1.9.5.1 1.1.3 1.5.3.3.7.2 1 .2 1.6-.2 0-1.1.1-1.5.4-.5.3 0 1.8.3 2 .3.1 1.5-.6 1.8-.7.4.7.9 1.3 1.6 1.7-.1.3-.5 1.2-.4 1.8.1.7 1.1.9 1.5.6.4-.2.6-1.5.6-1.9 1.2.1 2.2-.1 2.9-.4.2.4.7 1.2.9 1.4.4.3.8.1 1.3-.5s-.6-1.8-.6-1.8c.7-.7 1.1-1.5 1.3-2.3 0 0 1.3.4 1.9 0 .4-.2.3-1.7-.3-1.9zm-4.8 1.9c-.6.5-2.2.8-3.1.1-.8-.6-1.2-2.6-.3-3.7.5-.6 1.7-1.4 2.8-.6 1.5 1.2 1.3 3.6.6 4.2z"/><path id="XMLID_2790_" class="st8" d="M226.8 147c-.5-.1-1.1-.3-1.5-.3-.3-.9-.3-1.4-.1-1.6.2 0 1-.1 1.4-.4.5-.3 0-1.8-.3-2-.3-.1-1.5.6-1.8.7-.4-.7-.9-1.3-1.6-1.7.1-.3.5-1.2.4-1.8-.1-.7-1.1-.9-1.5-.6-.4.2-.6 1.5-.6 1.9-1.2-.1-2.2.1-2.9.4-.2-.4-.7-1.2-.9-1.4-.4-.3-.8-.1-1.3.5s.6 1.8.6 1.8c-.7.7-1.1 1.5-1.3 2.3 0 0-1.3-.4-1.9 0-.4.2-.3 1.7.3 1.9.5.1 1.1.3 1.5.3.3.7.2 1 .2 1.6-.2 0-1.1.1-1.5.4-.5.3 0 1.8.3 2 .3.1 1.5-.6 1.8-.7.4.7.9 1.3 1.6 1.7-.1.3-.5 1.2-.4 1.8.1.7 1.1.9 1.5.6.4-.2.6-1.5.6-1.9 1.2.1 2.2-.1 2.9-.4.2.4.7 1.2.9 1.4.4.3.8.1 1.3-.5s-.6-1.8-.6-1.8c.7-.7 1.1-1.5 1.3-2.3 0 0 1.3.4 1.9 0 .4-.2.3-1.8-.3-1.9zm-4.8 1.9c-.6.5-2.2.8-3.1.1-.8-.6-1.2-2.6-.3-3.7.5-.6 1.7-1.4 2.8-.6 1.5 1.2 1.3 3.6.6 4.2z"/><path id="XMLID_2738_" class="st8" d="M146 17.8c-.1-.2-.3-.5-.4-.7.2-.4.4-.6.6-.6.1.1.4.3.7.4.3.1.7-.7.6-.8-.1-.1-.8-.4-1-.4.1-.4.2-.8 0-1.2.1-.1.6-.3.8-.5.2-.3 0-.7-.3-.8-.2 0-.8.3-.9.5-.4-.5-.9-.8-1.2-.9.1-.2.2-.7.2-.9 0-.2-.3-.4-.7-.3-.4.1-.5.9-.5.9-.5 0-1 .1-1.3.3 0 0-.3-.6-.7-.7-.2-.1-.7.5-.6.8.1.2.3.5.4.7-.2.4-.3.5-.5.6-.1-.1-.4-.4-.7-.4-.3-.1-.7.7-.6.8.1.1.8.4 1 .4-.1.4-.2.8 0 1.2-.1.1-.6.3-.8.5-.2.3 0 .7.3.8.2 0 .8-.3.9-.5.4.5.9.8 1.2.9-.1.2-.2.7-.2.9 0 .2.3.4.7.3.4-.1.5-.9.5-.9.5 0 1-.1 1.3-.3 0 0 .3.6.7.7.1 0 .6-.6.5-.8zm-2.5-1.1c-.4 0-1.1-.5-1.2-1.2-.1-.5.5-1.4 1.3-1.4.4 0 1.2.1 1.3.9.1.9-.9 1.7-1.4 1.7z"/><path id="XMLID_2782_" class="st8" d="M56.7 156.1c-.1-.2-.3-.5-.4-.7.2-.4.4-.6.6-.6.1.1.4.3.6.4.3.1.7-.7.6-.8-.1-.1-.8-.4-1-.4.1-.4.2-.8 0-1.2.1-.1.6-.3.8-.5.2-.3 0-.7-.3-.8-.2 0-.8.3-.9.5-.4-.5-.9-.8-1.2-.9.1-.2.2-.7.2-.9 0-.2-.3-.4-.7-.3-.4.1-.5.9-.5.9-.5 0-1 .1-1.3.3 0 0-.3-.6-.7-.7-.2-.1-.7.5-.6.8.1.2.3.5.4.7-.2.4-.3.5-.5.6-.1-.1-.4-.4-.7-.4-.3-.1-.7.7-.6.8.1.1.8.4 1 .4-.1.4-.2.8 0 1.2-.1.1-.6.3-.8.5-.2.3 0 .7.3.8.2.1.8-.3.9-.5.4.5.9.8 1.2.9-.1.2-.2.7-.2.9 0 .2.3.4.7.3.4-.1.5-.9.5-.9.5 0 1-.1 1.3-.3 0 0 .3.6.7.7.2 0 .7-.6.6-.8zm-2.5-1.2c-.4 0-1.1-.5-1.2-1.2-.1-.5.5-1.4 1.3-1.4.4 0 1.2.1 1.3.9.1 1-1 1.8-1.4 1.7z"/><path id="XMLID_2727_" class="st8" d="M164.8 93c-.9.3-2.2.4-3.1-.3-.9-.7-1.4-3.1-.3-4.4.4-.4 1.1-1 2-1.1-.3-.8-.7-1.6-1-2.2 0 0-1.2.1-3.3.3-.8.8-1.2 1.7-1.5 2.6 0 0-1.5-.4-2.4 0-.4.2-.3 2.1.3 2.3.6.2 1.3.4 1.8.3.3.8.3 1.2.2 1.9-.3 0-1.3.1-1.8.5-.6.4 0 2.2.3 2.4.3.1 1.8-.7 2.2-.9.5.8 1.1 1.6 2 2-.1.3-.6 1.4-.5 2.2.1.9 1.3 1.1 1.8.8.4-.3.7-1.8.8-2.3 1.2.1 2.3-.1 3-.3-.1-1.4-.3-2.7-.5-3.8z"/><g id="XMLID_2719_"><path id="XMLID_2698_" class="st7" d="M104 163.3c1.9-.4 7.1-1.4 7.4-1.1.3.3 2.2 3.4 0 3.8-2.2.3-5.8.4-7.6-.3-.7-.4-1.7-2 .2-2.4z"/><path id="XMLID_2695_" class="st6" d="M115.7 159.6s-4.7-.6-5.3 1c-.7 1.9-1 7.4 2.2 7.4s3.5-.2 3.5-.2.6-7.2-.4-8.2z"/><path id="XMLID_2700_" class="st7" d="M116.7 167.3c-1.6 1.6-3.4-.4-3.3-3.5.1-3.7 1.6-4.2 2.3-4.2 1 0 2 .9 1.9 3.4-.1 2.5-.9 4.3-.9 4.3z"/></g><g id="XMLID_2785_"><path id="XMLID_2789_" class="st7" d="M47 162.2c-1.9-.4-7.1-1.4-7.4-1.1-.3.3-2.2 3.4 0 3.8 2.2.3 5.8.4 7.6-.3.7-.4 1.7-2-.2-2.4z"/><path id="XMLID_2788_" class="st6" d="M35.3 158.5s4.7-.6 5.3 1c.7 1.9 1 7.4-2.2 7.4s-3.5-.2-3.5-.2-.6-7.2.4-8.2z"/><path id="XMLID_2786_" class="st7" d="M34.3 166.2c1.6 1.6 3.4-.4 3.3-3.5-.1-3.7-1.6-4.2-2.3-4.2-1 0-2 .9-1.9 3.4.1 2.5.9 4.3.9 4.3z"/></g><g id="XMLID_2743_"><path id="XMLID_2746_" class="st7" d="M183.1 22.5c.7-.9 2.6-3.2 2.8-3.2.2 0 2.2.7 1.4 1.6-.8.9-2.4 2.3-3.4 2.6-.5.2-1.5-.1-.8-1z"/><path id="XMLID_2745_" class="st6" d="M186.8 16.6s-2.2 1.5-1.9 2.4c.4 1.1 2.2 3.6 3.6 2.4 1.4-1.2 1.4-1.3 1.4-1.3s-2.3-3.4-3.1-3.5z"/><path id="XMLID_2744_" class="st7" d="M190 19.6c-.1 1.3-1.6 1.1-2.7-.3-1.3-1.6-.8-2.4-.6-2.6.4-.3 1.2-.4 2 .8 1 1 1.3 2.1 1.3 2.1z"/></g><path id="XMLID_2699_" class="st3" d="M17.2 121.2l4.5-.2c5.1-9.5.3-16.8.3-16.8h-4s1.5 13.2-.8 17z"/><path id="XMLID_2701_" class="st4" d="M18 104.2s-3.4-.2-3.8 6.5c-.6 8.3 1.2 11.3 3 10.5s3.1-3.4 2.8-9.6c-.3-6.1-1.1-7.2-2-7.4z"/><g id="XMLID_2663_"><path id="XMLID_2656_" class="st2" d="M99.5 161.9c-1.7 1.9-11.5 9.8-9.7 16.3 2 7.4 22.8 13.3 22.8 13.3l-8.4 15.2s-35.9-5.7-32.3-30c0 0 3-15.6 10-21.8 2.4-2.1 8.2-2.3 11.4-1.4 4.7 1.4 8.3 6.1 6.2 8.4z"/><path id="XMLID_2662_" class="st2" d="M112.6 191.6s11-2.6 17.2-1.5c0 0 6.3 4.1 6.8 13.2 0 0-10.8 23.6-30.2 34.3 0 0-5.8-9.7-2.4-29.7 2.3-13.2 8.6-16.3 8.6-16.3z"/><path id="XMLID_2709_" class="st3" d="M136.6 203.3s-10.8 23.6-30.3 34.3c-2-31 23.4-47.5 23.4-47.5s6.5 4.2 6.9 13.2z"/><path id="XMLID_2708_" class="st3" d="M96.7 164.7c-2.2 2.1-4.9 5.1-6.3 8.3-.5-.2-1.1-.3-1.7-.4-3.7-.6-7.6.1-11.1 1.6-2 .8-4 1.9-5.8 3 0-.2 0-.3.1-.5 0 0 1.4-7 4.4-13.5 3.5-1.5 7.4-2.1 11.2-1.6 3.3.3 6.4 1.4 9.2 3.1z"/><path id="XMLID_2707_" class="st3" d="M102.5 187.9c-1.8 1.4-3.3 3-4.6 4.8-2.3 3.2-3.8 7.1-4.4 11.1-5.9-2.1-12.9-5.7-17.3-11.2.6-.7 1.2-1.3 1.8-2 2.8-3 6.1-5.6 9.8-7.6 1.3-.7 2.6-1.3 4-1.7 2.4 2.6 6.6 4.8 10.7 6.6z"/></g><g id="XMLID_2742_"><path id="XMLID_2665_" class="st2" d="M162.8 247.4s-3.6-48 16.3-87.2c0 0 6.8-4.3 15.5 4.3 0 0-18.1 43-12.8 80.8l-19 2.1z"/><path id="XMLID_2664_" class="st3" d="M162.8 247.4s-.2-6.6 8.8-7c6-.2 9.3 1.4 10.3 4.9.9 3.5-2.3 6.7-8.4 7.4-5.8.6-10.1-1.2-10.7-5.3z"/><path id="XMLID_2711_" class="st3" d="M182.6 208.8c-.8 5.4-1.4 11-1.6 16.7-2.8-.6-5.6-.8-8.5-.4-3.4.4-6.8 1.6-9.7 3.3.3-5.7.8-12.5 1.9-19.8 3.8-1.2 7.9-1.5 11.9-1.1 2 .3 4 .7 6 1.3z"/><path id="XMLID_2710_" class="st3" d="M190.1 177.4c-1.4 4.5-3 10-4.5 16.1-4.5-1.5-9.3-2-14-1.6-1.3.1-2.7.3-4 .7 1.3-5.5 2.9-11.2 4.9-16.9 5.9-.7 11.9-.1 17.6 1.7z"/></g><path id="XMLID_2715_" class="st4" d="M187.8 46.4c-.2.2-.4.5-.5.7-9.9 12.9-22.5 21.2-44.7 22.6-22.2 1.3-31.2-12-31.2-12-1.6-9.5 6.8-9.6 6.8-9.6 0-8 9.6-8.5 9.6-8.5s1.7-8.1 18.8-9.6c15.7-1.4 22.8 5.3 22.8 5.3 6-.9 8.8 4.5 8.8 4.5 5.7-1.8 9.1 5.6 9.6 6.6z"/><g id="XMLID_2638_"><path id="XMLID_2591_" class="st3" d="M190 54.5s8.8-1.3 12.8-.5c0 0-3.6 9.9 1.5 27.1 0 0-10.8.3-11.4.1-3-1.2-8.1-15.8-2.9-26.7z"/><path id="XMLID_2650_" class="st2" d="M202.7 53.9s4 .7 5 7.5c1.4 8.6.3 19.6-3.4 19.6-6 0-7.6-23.3-1.6-27.1z"/><path id="XMLID_2688_" class="st4" d="M196.9 81.2c-2 0-3.7 0-4-.1-3-1.1-8.1-15.7-2.9-26.6 0 0 2.1-.3 4.6-.5-2.3 8.3-1.8 17.3 1.4 25.3.3.7.5 1.3.9 1.9z"/></g><g id="XMLID_2661_"><path id="XMLID_2659_" class="st2" d="M251.4 116.7c-4-1.9-15.1-3.9-17.7 1-2.5 5 10.5 5.8 15.8 5.1 5.4-.7 4.1-5.1 1.9-6.1z"/><path id="XMLID_2723_" class="st3" d="M246.7 123.1c-2 .1-4.4 0-6.5-.4.3-2.7.3-5.4-.1-8 2.3-.2 4.8.2 7.1.6.3 2.6.1 5.2-.5 7.8z"/><path id="XMLID_2657_" class="st2" d="M208.5 59s-3.6.9-4.1 7.1c-.2 2.4-.3 7.1 5.2 7.9 6.3.9 42.1 3.2 42.4 35.9.2.3 8.6 7.9 15.2 0 0 0-2.2-32.8-30.3-45.4-15.4-6.9-28.4-5.5-28.4-5.5z"/><path id="XMLID_2658_" class="st3" d="M251.9 109.9c0 .1-6.9 11.5-7 21 0 0 12.6 10.2 24.6 4.9 0 0 2.6-5.9-2.4-25.9h-15.2c.1 0 .1 0 0 0z"/><path id="XMLID_2705_" class="st3" d="M241.3 66.7c-4.4 3-7.8 7.7-9.2 12.8-4.9-2.3-10-3.6-14.1-4.4.8-5.3 2.6-10.5 5.4-15.1 4.1.8 8.7 2.2 13.6 4.4 1.4.8 2.9 1.5 4.3 2.3z"/><path id="XMLID_2692_" class="st3" d="M263 93.1c-1.6.2-3.2.5-4.7 1-3.2 1-5.9 2.4-8.2 4.1-1.7-4.9-4.4-8.7-7.7-11.8 3-3.9 6.7-7.2 10.9-9.7 4.6 5.3 7.6 11.1 9.7 16.4z"/><g id="XMLID_2649_"><path id="XMLID_2660_" class="st2" d="M246.6 128.2c-2.8 3.4-5.9 16.8-1.3 17.7 5.5 1 6.1-8.4 6.3-13.7.3-5.9-4.1-5.1-5-4z"/><path id="XMLID_2680_" class="st3" d="M251.6 133.9c-.1 2-.3 4.3-.8 6.3-.9-1-2.1-1.8-3.4-2.2-1.3-.5-2.7-.6-4.1-.4.3-2 .9-4.1 1.5-5.8.7-.1 1.6 0 2.7.2 1.3.3 2.8 1 4.1 1.9z"/></g><g id="XMLID_2666_"><path id="XMLID_2678_" class="st2" d="M255.9 131.4c-2.8 3.4-5.9 16.8-1.3 17.7 5.5 1 6.1-8.4 6.3-13.7.2-5.9-4.1-5.1-5-4z"/><path id="XMLID_2674_" class="st3" d="M260.8 137.1c-.1 2-.3 4.3-.8 6.3-.9-1-2.1-1.8-3.4-2.2-1.3-.5-2.7-.6-4.1-.4.3-2 .9-4.1 1.5-5.8.7-.1 1.6 0 2.7.2 1.4.3 2.8 1 4.1 1.9z"/></g><g id="XMLID_2679_"><path id="XMLID_2717_" class="st2" d="M263.8 132.1c-2 3.9-2 17.7 2.7 17.5 5.6-.2 4.1-9.5 3.1-14.8-1-5.7-5.1-4-5.8-2.7z"/><path id="XMLID_2681_" class="st3" d="M269.9 136.5c.3 2 .6 4.2.6 6.3-1.1-.8-2.5-1.3-3.8-1.4-1.4-.1-2.8 0-4.1.6-.1-2-.1-4.2.2-6 .7-.2 1.5-.4 2.7-.4 1.4 0 3 .3 4.4.9z"/></g></g><g id="XMLID_2675_"><path id="XMLID_2731_" class="st1" d="M154.1 46.3c-.1 0-.2 0-.3-.1-4.4-4-6.7-10.2-6.1-16.2.2-2.2 1-5.2 3.3-7 .3-.3.7-.5 1.1-.7.6-4.2 3.4-8.1 7.5-9.5 3-1.1 6.4-.7 9.2.8 0-.4 0-.9.1-1.3.4-3.1 2.7-5.9 5.7-6.9s6.5-.1 8.7 2.1c.2.2.2.5 0 .6-.2.2-.5.2-.6 0-2-2-5.1-2.8-7.8-1.9-2.7.9-4.7 3.3-5.1 6.1-.1.6-.1 1.1 0 1.7 1.9 1.2 3.4 2.9 4.3 4.9.3.7.2 1.4-.3 1.6-.5.2-1-.1-1.2-.2-1.9-1.3-3.3-3.5-3.6-5.8-2.7-1.6-6-2.1-9-1-3.5 1.3-6.1 4.6-6.8 8.3 2.5-.8 5.4-.2 7.3 1.7 1.1 1.1 1.7 2.5 1.7 3.9 0 1.6-.8 3-2.1 3.8-1.4.8-3.4.6-4.9-.4-1.6-1.1-2.3-2.9-2.7-4.1-.3-1.1-.4-2.2-.4-3.3-.1.1-.3.2-.4.3-2 1.7-2.7 4.4-2.9 6.4-.6 5.7 1.7 11.6 5.8 15.4.2.2.2.5 0 .6-.3.1-.4.2-.5.2zm-1.3-23.5c-.1 1.2 0 2.4.3 3.6.3 1.1 1 2.7 2.3 3.7 1.2.9 2.8 1 4 .4 1-.6 1.6-1.7 1.6-3 0-1.2-.5-2.4-1.4-3.3-1.7-1.8-4.6-2.3-6.8-1.4zm17-7.5c.5 1.7 1.6 3.3 3.1 4.3.2.1.3.1.3.1s0-.2-.1-.5c-.8-1.5-2-2.9-3.3-3.9z"/></g><g id="XMLID_2676_"><path id="XMLID_2728_" class="st1" d="M141 45.2c-.3 0-.5-.3-.4-.5.4-3.4.8-7.3.1-10.9-.7-4-2.8-7.1-5.6-8.7-.6-.3-1.3-.6-1.9-.8.2.6.3 1.2.4 1.8.4 2.3 0 5.5-2.4 6.6-1 .5-2.2.4-3.3-.1-1.2-.6-2.1-1.7-2.4-3-.5-2.3 1-4.9 3.3-5.9 1-.4 2-.6 3.2-.5-1-2.6-2.8-4.9-5.1-6.5-3.2-2.3-7.2-3.2-11-2.5-.2 0-.5-.1-.5-.4 0-.2.1-.5.4-.5 4.1-.7 8.3.2 11.7 2.6 2.6 1.8 4.5 4.4 5.6 7.4.9.2 1.8.5 2.7 1 3.1 1.7 5.3 5.1 6.1 9.3.7 3.8.3 7.7-.1 11.2-.4.2-.6.4-.8.4zM131.4 24c-.8 0-1.6.2-2.4.5-2 .9-3.2 3-2.8 4.9.2 1 .9 1.9 1.9 2.4.9.4 1.8.5 2.6.1 2-.9 2.3-3.6 1.9-5.7-.1-.7-.3-1.5-.5-2.2h-.7z"/></g><path id="XMLID_2677_" d="M16.3 106.8s-11.4-2.6-13.4-.1c-2.6 3.2-2.3 10.3 0 11.7 2.3 1.5 13.4.1 13.4.1s3.3-6.3 0-11.7z" fill="#e5332a"/><g id="XMLID_2726_"><path id="XMLID_2780_" d="M4.4 109.8c-.1 0-.1 0-.2-.1-.2-.1-.3-.4-.2-.6.1-.2 1.3-2.2 7.1-1 .2 0 .4.3.4.5s-.3.4-.5.4c-5.1-1-6.1.5-6.1.6-.2.1-.3.2-.5.2z" fill="#f5f5f5"/></g><path id="XMLID_2637_" class="st1" d="M128.8 47.3s4.2-9.9 19.6-9.6c15.4.3 20.4 6 20.4 6s-11.1 9.6-17.8 10-22.2-6.4-22.2-6.4z"/><path id="XMLID_2716_" class="st3" d="M178.2 39.8c-5.5 9.5-14.8 19.6-32.8 19.6-16.9 0-27.2-11.3-27.2-11.3 0-8 9.6-8.5 9.6-8.5 5.9 9.7 18.1 9.2 18.1 9.2 14.1-.3 23.6-13.5 23.6-13.5 5.9-.9 8.7 4.5 8.7 4.5z"/><g id="XMLID_2764_"><path id="XMLID_2693_" class="st2" d="M201.6 162.6c-.6.9-1.9 8.8-1.9 8.8h14.7l1-7.9-13.8-.9z"/><path id="XMLID_2694_" class="st3" d="M200.9 177.1h13l.6-5.7h-14.8z"/><path id="XMLID_2763_" class="st3" d="M215.5 163.5l1.4 7.9-3 5.7.6-5.7z"/></g><g id="XMLID_2766_"><path id="XMLID_2769_" class="st2" d="M63.1 173.3c-.3.5-1 4.7-1 4.7h8l.6-4.3-7.6-.4z"/><path id="XMLID_2768_" class="st3" d="M62.7 181.1h7l.3-3h-7.9z"/><path id="XMLID_2767_" class="st3" d="M70.6 173.8l.7 4.3-1.6 3 .3-3z"/></g><g id="XMLID_2801_"><path id="XMLID_2804_" class="st2" d="M150.9 184.5c-.3.5-1 4.7-1 4.7h8l.6-4.3-7.6-.4z"/><path id="XMLID_2803_" class="st3" d="M150.5 192.3h7l.4-3.1h-8z"/><path id="XMLID_2802_" class="st3" d="M158.4 184.9l.8 4.3-1.7 3.1.4-3.1z"/></g><path id="XMLID_2653_" class="st3" d="M73.6 88.1l.3 8.8-5.4 1.2v6.7l5.6.7.5 4.5-5.7 1.1-.4 7.6 6.5 1.2v5.9l-6.5 1.2-.1 6.7 5.8 2.2-.3 3.7c-.1 2 1.1 3.9 3.1 4.5 5.6 1.6 16.5 3.9 20.3-1.1 2.6-3.5 6.4-30.9 1.3-51.3-.7-2.7-2.9-4.6-5.7-4.9-6.7-.8-19.5-1.7-19.3 1.3z"/><g id="XMLID_2781_"><path id="XMLID_2787_" class="st2" d="M79.2 144.6c-.3-.1-.6-.2-.9-.2 3-12.1 3-31.6 0-58.3.3 0 .6 0 .9-.1 3.1 26.7 3 46.4 0 58.6z"/></g><g id="XMLID_2696_"><path id="XMLID_2794_" class="st1" d="M120.6 183.3c-1.2 0-2.3-.3-3.3-.9-.3-.2-.6-.4-.8-.6-.6.2-1.2.3-1.8.3-1.5-.1-3-1-4-2.4-.9-1.4-1.2-3.2-.6-4.6.1-.2.3-.3.4-.2.2.1.3.3.2.4-.5 1.2-.3 2.7.5 4 .8 1.3 2.1 2.1 3.4 2.1.4 0 .9 0 1.3-.2-1.3-1.5-1.9-3.7-1.4-5.6.3-1.1 1-2.4 2.4-2.5 1.4-.2 2.6 1.1 3 2.4.4 1.5 0 3.2-1 4.5-.5.6-1 1.1-1.6 1.4.2.1.3.2.5.3 2 1.2 4.7 1.1 6.6-.4l.3-.3c-.5-.4-.9-.8-1.3-1.3-1.1-1.6-1.5-3.4-1.1-5.1.3-1.2 1.2-2.4 2.5-2.3 1.3 0 2.2 1.3 2.4 2.6.4 2.1-.2 4.4-1.6 6 .7.4 1.6.7 2.4.7.8 0 1.6-.1 2.4-.5-.1-.1-.2-.1-.2-.2-2.1-1.7-2.8-5-1.5-7.4.5-1 1.6-2.1 2.9-2.1 1.6 0 2.7 1.4 3.1 3 .1-1.3.6-2.5 1.8-2.7 1.2-.2 2.2.7 2.7 1.6 1.3 2.4.7 5.6-1.3 7.4.4.4.9.7 1.5.8 2.2.7 4.5-.7 5.6-2.4 1.3-1.9 1.6-4.4 1.8-6.5 0-.2.2-.3.4-.3s.3.2.3.4c-.2 2.2-.5 4.8-1.9 6.8-1.3 1.9-3.9 3.5-6.4 2.7-.7-.2-1.4-.6-1.9-1.1-1.8 1.2-4.2 1.3-6.1.3-1 .5-2.1.8-3.1.8s-2-.4-2.9-.9c-.2.2-.3.3-.5.4-1.3 1.2-2.7 1.6-4.1 1.6zm11.2-2c1.6.7 3.5.5 5-.4-1.3-1.5-1.8-3.5-2-4.7-.1 1.6-.8 3.1-2 4.3-.4.3-.7.5-1 .8zm-14.7-7.5h-.2c-1 .1-1.6 1.2-1.8 2-.4 1.8.2 3.8 1.5 5.2.6-.3 1.2-.8 1.6-1.4.9-1.2 1.3-2.6.9-3.9-.3-1-1.1-1.9-2-1.9zm14.4-1.5c-1.1 0-1.9.9-2.3 1.7-1.1 2.2-.5 5 1.4 6.6.2.1.3.2.5.4.4-.3.8-.6 1.1-.9 1.2-1.3 1.9-2.9 1.8-4.5-.1-1.7-1-3.3-2.5-3.3zm-6.9.8c-.9 0-1.5.9-1.8 1.8-.4 1.5-.1 3.1 1 4.5.3.5.8.9 1.2 1.2 1.3-1.4 1.9-3.5 1.5-5.5-.2-.9-.9-1.9-1.9-2 .1 0 .1 0 0 0zm12.1-.5h-.2c-1.3.3-1.3 2.2-1.1 3.2.2 1.1.7 3.2 1.9 4.6 1.8-1.6 2.4-4.4 1.2-6.6-.4-.6-1.1-1.2-1.8-1.2z"/></g></g></g></g></svg>